<svg xmlns="http://www.w3.org/2000/svg" xmlns:xlink="http://www.w3.org/1999/xlink" width="400" zoomAndPan="magnify" viewBox="0 0 300 299.999988" height="400" preserveAspectRatio="xMidYMid meet" version="1.2"><defs><clipPath id="d1abee2d1e"><path d="M 75 0 L 225 0 C 244.890625 0 263.96875 7.902344 278.03125 21.96875 C 292.097656 36.03125 300 55.109375 300 75 L 300 225 C 300 244.890625 292.097656 263.96875 278.03125 278.03125 C 263.96875 292.097656 244.890625 300 225 300 L 75 300 C 55.109375 300 36.03125 292.097656 21.96875 278.03125 C 7.902344 263.96875 0 244.890625 0 225 L 0 75 C 0 55.109375 7.902344 36.03125 21.96875 21.96875 C 36.03125 7.902344 55.109375 0 75 0 Z M 75 0 "/></clipPath><clipPath id="e57030a8aa"><path d="M 61.617188 116 L 224 116 L 224 224.53125 L 61.617188 224.53125 Z M 61.617188 116 "/></clipPath><clipPath id="84b23fc3f6"><path d="M 197 75.28125 L 224 75.28125 L 224 85 L 197 85 Z M 197 75.28125 "/></clipPath><clipPath id="7cd1d79d82"><path d="M 233 101 L 238.617188 101 L 238.617188 125 L 233 125 Z M 233 101 "/></clipPath><clipPath id="87df22367f"><path d="M 162.738281 34.839844 L 222 34.839844 L 222 85.378906 L 162.738281 85.378906 Z M 162.738281 34.839844 "/></clipPath><clipPath id="3b1990c427"><path d="M 176.988281 34.839844 L 207.796875 34.839844 C 211.578125 34.839844 215.203125 36.339844 217.875 39.011719 C 220.546875 41.683594 222.046875 45.308594 222.046875 49.089844 L 222.046875 71.128906 C 222.046875 74.910156 220.546875 78.53125 217.875 81.207031 C 215.203125 83.878906 211.578125 85.378906 207.796875 85.378906 L 176.988281 85.378906 C 173.210938 85.378906 169.585938 83.878906 166.914062 81.207031 C 164.242188 78.53125 162.738281 74.910156 162.738281 71.128906 L 162.738281 49.089844 C 162.738281 45.308594 164.242188 41.683594 166.914062 39.011719 C 169.585938 36.339844 173.210938 34.839844 176.988281 34.839844 Z M 176.988281 34.839844 "/></clipPath><clipPath id="1981fba31a"><path d="M 227.691406 105.789062 L 287 105.789062 L 287 156.328125 L 227.691406 156.328125 Z M 227.691406 105.789062 "/></clipPath><clipPath id="b9db304bd2"><path d="M 241.941406 105.789062 L 272.746094 105.789062 C 276.527344 105.789062 280.152344 107.289062 282.824219 109.960938 C 285.496094 112.632812 286.996094 116.257812 286.996094 120.039062 L 286.996094 142.078125 C 286.996094 145.859375 285.496094 149.484375 282.824219 152.15625 C 280.152344 154.828125 276.527344 156.328125 272.746094 156.328125 L 241.941406 156.328125 C 238.160156 156.328125 234.535156 154.828125 231.863281 152.15625 C 229.191406 149.484375 227.691406 145.859375 227.691406 142.078125 L 227.691406 120.039062 C 227.691406 116.257812 229.191406 112.632812 231.863281 109.960938 C 234.535156 107.289062 238.160156 105.789062 241.941406 105.789062 Z M 241.941406 105.789062 "/></clipPath></defs><g id="42005361c2"><g clip-rule="nonzero" clip-path="url(#d1abee2d1e)"><rect x="0" width="300" y="0" height="299.999988" style="fill:#2c6dee;fill-opacity:1;stroke:none;"/></g><g clip-rule="nonzero" clip-path="url(#e57030a8aa)"><path style=" stroke:none;fill-rule:evenodd;fill:#ffffff;fill-opacity:1;" d="M 61.617188 160.292969 L 98.902344 187.285156 C 105.527344 200.96875 114.09375 213.898438 124.113281 224.296875 L 124.113281 211.527344 C 124.113281 194.558594 138.015625 180.710938 154.929688 180.710938 C 171.902344 180.710938 185.800781 194.613281 185.800781 211.527344 L 185.746094 224.296875 C 204.875 199.027344 225.238281 151.726562 222.867188 120.75 C 222.761719 119.347656 222.597656 117.945312 222.4375 116.601562 C 193.558594 166.378906 107.683594 182.757812 61.617188 160.292969 "/></g><path style=" stroke:none;fill-rule:evenodd;fill:#ffffff;fill-opacity:1;" d="M 168.5625 95.425781 C 151.96875 101.191406 137.367188 94.027344 125.621094 91.710938 C 86.402344 83.953125 77.941406 119.132812 88.070312 158.082031 C 138.984375 166.433594 215.863281 153.503906 235.152344 76.730469 L 216.726562 99.414062 C 209.992188 88.421875 197.816406 84.976562 180.304688 97.257812 C 165.058594 107.980469 150.136719 118.054688 133.164062 113.097656 C 133.164062 113.152344 161.289062 111.265625 168.5625 95.425781 "/><g clip-rule="nonzero" clip-path="url(#84b23fc3f6)"><path style=" stroke:none;fill-rule:evenodd;fill:#ffffff;fill-opacity:1;" d="M 210.585938 58.683594 C 213.925781 70.589844 211.5 68.488281 223.351562 71.453125 C 211.445312 74.792969 213.546875 72.367188 210.585938 84.222656 C 207.242188 72.316406 209.667969 74.414062 197.816406 71.453125 C 209.722656 68.113281 207.566406 70.535156 210.585938 58.683594 "/></g><g clip-rule="nonzero" clip-path="url(#7cd1d79d82)"><path style=" stroke:none;fill-rule:evenodd;fill:#ffffff;fill-opacity:1;" d="M 245.011719 101.191406 C 248.082031 112.074219 245.820312 110.136719 256.753906 112.9375 C 245.871094 116.007812 247.8125 113.746094 245.011719 124.679688 C 241.9375 113.796875 244.203125 115.738281 233.265625 112.9375 C 244.148438 109.867188 242.207031 112.074219 245.011719 101.191406 "/></g><g clip-rule="nonzero" clip-path="url(#87df22367f)"><g clip-rule="nonzero" clip-path="url(#3b1990c427)"><path style=" stroke:none;fill-rule:nonzero;fill:#2c6dee;fill-opacity:1;" d="M 162.738281 34.839844 L 221.96875 34.839844 L 221.96875 85.378906 L 162.738281 85.378906 Z M 162.738281 34.839844 "/></g></g><g clip-rule="nonzero" clip-path="url(#1981fba31a)"><g clip-rule="nonzero" clip-path="url(#b9db304bd2)"><path style=" stroke:none;fill-rule:nonzero;fill:#2c6dee;fill-opacity:1;" d="M 227.691406 105.789062 L 286.917969 105.789062 L 286.917969 156.328125 L 227.691406 156.328125 Z M 227.691406 105.789062 "/></g></g></g></svg>